<?xml version="1.0" encoding="utf-8"?>
<!-- Generator: Adobe Illustrator 19.1.0, SVG Export Plug-In . SVG Version: 6.00 Build 0)  -->
<svg version="1.1" id="Слой_1" xmlns="http://www.w3.org/2000/svg" xmlns:xlink="http://www.w3.org/1999/xlink" x="0px" y="0px"
	 viewBox="0 0 230 230" style="enable-background:new 0 0 230 230;" xml:space="preserve">
<style type="text/css">
	.st0{fill:#4D4D4D;}
	.st1{fill:#333333;}
	.st2{fill:#666666;}
	.st3{fill:#FEC642;}
	.st4{fill:#E6B33C;}
	.st5{fill:#CDAF8B;}
	.st6{fill:#9B7B62;}
	.st7{fill:#EDD2B5;}
	.st8{fill:#B59475;}
	.st9{opacity:0.15;}
	.st10{fill:#B53737;}
	.st11{fill:#FFFFFF;}
	.st12{opacity:0.15;fill-rule:evenodd;clip-rule:evenodd;}
	.st13{fill-rule:evenodd;clip-rule:evenodd;fill:#C44949;}
	.st14{fill:#FFBF0B;}
</style>
<g>
	<g>
		<path class="st0" d="M170.9,143.4c-35.2,16-75.7,16-110.9,0c-3.2-1.5-5.3-4.7-5.3-8.2V86.3h121.4v48.9
			C176.2,138.7,174.1,141.9,170.9,143.4z"/>
		<path class="st1" d="M106.3,86.3v68.7c20.4,1.4,41.1-1.8,60.4-9.8c5.8-2.4,9.5-8.1,9.5-14.3V86.3H106.3z"/>
		<polygon class="st0" points="124.4,109.4 3,82.7 111.1,59 228,84.2 		"/>
		<polygon class="st1" points="228,84.2 228,87.3 124.4,112.5 124.4,109.4 		"/>
		<polygon class="st2" points="3,85.8 3,82.7 124.4,109.4 124.4,112.5 		"/>
		<g>
			<polygon class="st3" points="23.3,110 18.8,110 18.8,86.3 23.3,87.1 			"/>
			<circle class="st4" cx="21.1" cy="109.2" r="3.8"/>
			<path class="st4" d="M24.1,117.5h-5.9c-0.4,0-0.8-0.4-0.8-0.8v-3.9c0-0.4,0.4-0.8,0.8-0.8h5.9c0.4,0,0.8,0.4,0.8,0.8v3.9
				C24.9,117.1,24.5,117.5,24.1,117.5z"/>
			<path class="st3" d="M22.7,117.5h-3c-0.7,0-1.3,0.5-1.5,1.2l-5.6,27c-0.2,0.9,0.5,1.8,1.5,1.8h14.2c0.9,0,1.7-0.9,1.5-1.8
				l-5.6-27C24,118,23.4,117.5,22.7,117.5z"/>
			<polygon class="st3" points="18.8,86.3 108.1,79.7 110.6,81.1 23.3,87.1 			"/>
		</g>
		<ellipse class="st1" cx="115.5" cy="81.1" rx="17.2" ry="4.6"/>
	</g>
	<g>
		
			<ellipse transform="matrix(-0.2794 -0.9602 0.9602 -0.2794 158.4456 359.0973)" class="st5" cx="214" cy="120.1" rx="13.9" ry="3.3"/>
		<g>
			<path class="st6" d="M214.5,105.5l7.8,26.6c0,0-5.3,1.5-14.7,4c-35.4,7.5-69.1,18.6-103.3,30.1c-8.4,2.4-14.7,4.5-14.7,4.5
				l-7.8-26.6c0,0,6.4-1.6,14.7-4c35.3-7.8,69.6-17.1,103.5-30.1C209.2,107,214.5,105.5,214.5,105.5z"/>
			<path class="st5" d="M216.4,112.3l5.8,19.9c0,0-5.3,1.5-14.7,4c-35.4,7.5-69.1,18.6-103.3,30.1c-8.4,2.4-14.7,4.5-14.7,4.5
				l-5.8-19.9c0,0,6.6-1.8,14.9-4.2c34.7-8.9,69-18.3,103.1-30C211.1,113.8,216.4,112.3,216.4,112.3z"/>
			<path class="st6" d="M81.8,144.1c1.7-0.5,3.9,1.8,5.8,5.7c0.9,1.8,1.8,4,2.5,6.4l0.1,0.3c2.1,7.3,1.8,13.6-0.6,14.4
				c-1.7,0.5-4.1-2.1-6.1-6.2l1.8-2.4l-2.7,0.2c-0.5-1.1-0.9-2.4-1.3-3.7C79.1,151.3,79.4,144.8,81.8,144.1z"/>
			<path class="st7" d="M91.1,151.3l3.7-0.6l-2.9,2.6c0.2,0.7,0.5,1.3,0.7,2c0.5,1.6,0.8,3.1,1,4.5c0,0,5.2-1.5,14.2-4.2
				c32.6-10.1,64.9-19.5,97.9-28.5c9-2.5,14.1-4,14.1-4l-5.2-17.8c0,0-5.3,1.5-14.5,4.5c-33.9,13-68.2,22.3-103.5,30.1
				c-8.4,2.4-14.7,4-14.7,4C84.3,143.4,88.8,146.2,91.1,151.3z"/>
			<path class="st8" d="M87.6,149.8c0,0,0.1,0,0.1,0c0.9,1.8,1.8,4,2.5,6.4l0.1,0.3l-5.2,1.2C84.2,153.8,86.3,150.1,87.6,149.8z"/>
		</g>
		<path class="st7" d="M215.2,124.6l9.8-2.8c-0.7-2.4-1.4-4.5-2.2-6.4l-4.6,0.8l3.7-2.8c-1.1-2.4-2.1-4.2-3-5.6
			c-1.1-1.8-3.3-2.6-5.3-2l-3.6,1.1L215.2,124.6z"/>
		<g>
			<polygon class="st9" points="149.3,126.5 156.4,137.1 156.1,149.9 147.9,152.3 148.3,139.4 141.1,128.8 			"/>
			<polygon class="st10" points="148.6,126.6 155.8,137.3 155.5,150.1 147.3,152.4 147.7,139.6 140.5,129 			"/>
			<polygon class="st10" points="148.6,126.6 155.8,137.3 155.5,150.1 147.3,152.4 147.7,139.6 140.5,129 			"/>
			<polygon class="st11" points="148.9,139.3 148.5,152.1 149.2,151.9 149.5,139.1 142.3,128.5 141.7,128.6 			"/>
			<polygon class="st11" points="154.4,137.7 154,150.5 154.6,150.3 155,137.5 147.8,126.9 147.2,127 			"/>
		</g>
		<g>
			<g>
				<path class="st12" d="M158.8,145.2c0.6-1.5,0.7-3.2,0.2-4.9c-1.2-3.8-5.3-5.9-9-4.7c-3.8,1.2-5.9,5.3-4.7,9
					c0.5,1.5,1.4,2.7,2.6,3.6l-2.6,11.9l4-5l2.1,6.6l2.6-12.3c0,0,0.1,0,0.1,0l9.1,8.6l-2.1-6.7l6.2,1.8L158.8,145.2z"/>
				<path class="st13" d="M158.3,143.5c0.6-1.5,0.7-3.2,0.2-4.9c-1.2-3.8-5.3-5.9-9-4.7c-3.8,1.2-5.9,5.3-4.7,9
					c0.5,1.5,1.4,2.7,2.6,3.6l-2.6,11.9l4-5l2.1,6.6l2.6-12.3c0,0,0.1,0,0.1,0l9.1,8.6l-2.1-6.7l6.2,1.8L158.3,143.5z"/>
				<g>
					<path class="st11" d="M150.6,156.3l-1.5-4.8l-2.6,3.2l1.9-8.6l-0.5-0.4c-1-0.8-1.8-1.8-2.2-3.1c-1-3.3,0.8-6.8,4-7.8
						c3.3-1,6.8,0.8,7.8,4c0.4,1.4,0.4,2.9-0.2,4.2l-0.2,0.6l5.8,5.7l-4.2-1.1l1.5,4.8l-6.6-6.5l-1.1,0.3L150.6,156.3z M149.3,150.7
						l1.3,4.1l1.7-8.1l1.7-0.5l5.8,5.5l-1.3-4l3.2,0.9l-5-4.8l0.3-0.8c0.5-1.3,0.5-2.7,0.1-3.9c-1-3.1-4.3-4.8-7.3-3.8
						c-3.1,1-4.8,4.3-3.8,7.3c0.4,1.2,1.1,2.2,2.1,2.9l0.7,0.5l-1.5,7.1L149.3,150.7z"/>
				</g>
			</g>
			<polygon class="st11" points="160.3,153.2 158.5,147.7 159,147.8 160.9,153.7 			"/>
			<g>
				<path class="st14" d="M151.3,142.5l0.1,1.9l-1.5,0.5l-0.1-7.3l2-0.6l4.2,6l-1.6,0.5l-1.1-1.5L151.3,142.5z M152.6,140.8
					l-0.9-1.3c-0.2-0.4-0.5-0.8-0.7-1.2l0,0c0,0.4,0.1,1,0.1,1.4l0.1,1.5L152.6,140.8z"/>
			</g>
		</g>
	</g>
</g>
</svg>
