<svg xmlns="http://www.w3.org/2000/svg" width="250" height="250" viewBox="0 0 250 250"><path fill="#285421" d="M16.568 47.68l-14.068 128.447 230.564 26.193 14.436-128.394-230.932-26.246z"/><path fill="#2E5F25" d="M11.914 54.655l-5.956 129.077 231.76 11.617 6.325-129.054-232.129-11.64z"/><path fill="#D9E5B7" d="M245.229 181.242l-231.502 16.101-8.952-128.602 231.504-16.102z"/><path fill="#346C2A" d="M4.398 68.471l9.328 128.872 231.502-15.807-8.949-128.897-231.881 15.832zm230.6 77.509c-13.809 3.992-24.066 15.803-26.109 30.021l-159.896 11.12c-3.989-13.794-15.793-24.074-30.021-26.114l-3.963-56.983c13.814-3.991 24.083-15.806 26.131-30.034l159.857-11.12c3.991 13.811 15.808 24.087 30.04 26.128l3.961 56.982zM204.053 170.503l-151.03 10.508-.56-1.228c-5.111-11.266-14.844-19.733-26.712-23.235l-1.287-.381-3.348-48.105 1.232-.558c11.274-5.114 19.745-14.854 23.252-26.732l.375-1.289 150.989-10.504.554 1.227c5.115 11.278 14.854 19.75 26.735 23.253l1.286.385 3.35 48.11-1.228.553c-11.269 5.106-19.729 14.838-23.228 26.702l-.38 1.294zm-148.638 6.452l145.696-10.137c3.902-11.926 12.453-21.756 23.728-27.268l-2.978-42.774c-11.94-3.902-21.771-12.459-27.291-23.746l-145.658 10.134c-3.896 11.942-12.452 21.779-23.738 27.295l2.976 42.773c11.928 3.896 21.754 12.448 27.265 23.723z"/><path fill="#D9E5B7" stroke="#346C2A" stroke-miterlimit="10" d="M164.393 122.252c2.063 29.637-13.9 54.889-35.656 56.405-21.754 1.514-41.062-21.286-43.121-50.927-2.058-29.636 13.901-54.889 35.656-56.4 21.751-1.51 41.06 21.283 43.121 50.922z"/><path fill="#346C2A" d="M128.336 172.854c-18.524 1.289-35.083-19.138-36.92-45.526-1.837-26.389 11.73-48.904 30.261-50.192 18.52-1.292 35.082 19.133 36.911 45.519 1.84 26.393-11.731 48.913-30.252 50.199z"/><path fill="#D9E5B7" d="M146.611 132.361c-7.057.49-26.697 1.865-29.46 2.053-.577.043-1.553 2.23-1.756 2.722-.685 1.647-.751 3.476-.492 5.222.598 4.139 3.378 7.225 7.335 8.487 8.081 2.585 15.124-1.581 21.722-5.633 3.517-2.157 3.583 4.884 2.703 6.767-1.297 2.75-5.79 4.33-8.435 5.252-7.494 2.607-16.719 2.935-23.752-1.213-6.786-3.996-10.294-12.229-8.728-19.947l.209-.875c-2.621.471-3.218-1.607-3.107-3.906.124-2.555 5.554-2.506 6.338-2.561.912-.063 2.404-2.133 3.174-2.746 3.163-2.527 6.844-4.375 10.362-6.35-3.187.218-18.228 1.563-19.097 1.329-2.263.153-2.632-6.108-.419-6.261.869-.064 23.024-1.606 26.958-1.876.911-.069 1.535.144 2.027-.666 1.936-3.169 1.75-7.573-.572-10.515-5.03-6.364-14.98-2.977-20.552.603-.803.514-2.603 2.279-3.663 1.51-1.09-.768-1.004-3.277-1.042-4.402-.116-3.467 2.368-4.73 5.282-6.031 6.757-3.009 15.227-3.619 21.984-.253 6.958 3.468 10.103 11.429 8.623 18.913 2.632-.183 4.452-.583 4.687 2.773.209 3.07-1.143 3.274-3.67 3.449-1.892.13-3.276-.074-4.635 1.045-3.07 3.6-7.254 6.034-11.393 8.222 4.087-.285 16.359-1.14 18.406-1.276 2.85-.207 3.299 6.005.963 6.164z"/><path fill="#346C2A" d="M55.668 146.455c-9.136.636-17.081-6.275-17.717-15.406-.634-9.132 6.282-17.075 15.412-17.714 9.136-.635 17.076 6.275 17.711 15.407.634 9.131-6.282 17.078-15.406 17.713zm-2.176-31.187c-8.057.563-14.165 7.579-13.604 15.644.561 8.064 7.582 14.172 15.644 13.609 8.064-.561 14.167-7.58 13.607-15.646-.556-8.062-7.577-14.166-15.647-13.607z"/><g fill="#346C2A"><path d="M49.565 125.59c-6.194-7.951-8.736-5.034 0 0zM58.825 124.948c7.946-6.191 5.03-8.734 0 0zM58.825 124.948c-.992.77-2.146 1.591-3.471 2.452-.548-1.493-.967-2.84-1.3-4.047-.147 1.238-.381 2.631-.715 4.185-1.437-.668-2.695-1.326-3.773-1.948.765.982 1.585 2.133 2.454 3.467-1.492.545-2.842.974-4.05 1.295 1.238.156 2.639.389 4.192.722-.671 1.438-1.332 2.69-1.953 3.77.985-.765 2.139-1.585 3.47-2.446.542 1.494.967 2.843 1.295 4.047.147-1.239.387-2.637.715-4.186 1.441.663 2.692 1.318 3.771 1.941-.763-.98-1.583-2.131-2.446-3.463 1.491-.547 2.84-.965 4.05-1.291-1.24-.156-2.639-.393-4.192-.723.67-1.444 1.324-2.692 1.953-3.775zM50.208 134.842c-7.954 6.201-5.038 8.734 0 0zM59.459 134.198c6.195 7.954 8.742 5.04 0 0zM54.973 136.441c-1.246 10.002 2.612 9.732 0 0zM54.053 123.354c1.245-10.003-2.613-9.739 0 0zM61.063 129.443c9.999 1.245 9.726-2.614 0 0zM47.969 130.352c-9.998-1.241-9.74 2.611 0 0z"/></g><path fill="#346C2A" d="M195.859 136.701c-9.135.635-17.073-6.276-17.709-15.408-.635-9.129 6.272-17.071 15.404-17.708 9.143-.637 17.082 6.273 17.711 15.406.642 9.136-6.277 17.073-15.406 17.71zm-2.164-31.183c-8.069.559-14.17 7.577-13.611 15.641.559 8.065 7.578 14.17 15.648 13.608 8.06-.558 14.158-7.578 13.596-15.645-.555-8.061-7.566-14.165-15.633-13.604z"/><g fill="#346C2A"><path d="M189.766 115.838c-6.203-7.946-8.743-5.034 0 0zM199.018 115.197c7.953-6.195 5.035-8.736 0 0zM199.018 115.197c-.986.767-2.141 1.59-3.47 2.45-.543-1.492-.965-2.842-1.299-4.047-.146 1.241-.386 2.632-.714 4.188-1.443-.669-2.692-1.329-3.771-1.951.766.985 1.584 2.133 2.447 3.468-1.486.544-2.838.971-4.05 1.294 1.243.151 2.644.389 4.192.722-.672 1.442-1.328 2.691-1.957 3.769.992-.764 2.14-1.583 3.472-2.445.543 1.49.969 2.84 1.294 4.046.154-1.243.391-2.635.716-4.189 1.44.67 2.701 1.327 3.771 1.945-.762-.979-1.576-2.131-2.444-3.461 1.489-.549 2.842-.968 4.052-1.296-1.24-.152-2.64-.388-4.195-.721.672-1.443 1.334-2.694 1.956-3.772zM190.396 125.09c-7.949 6.198-5.033 8.74 0 0zM199.65 124.446c6.204 7.956 8.745 5.04 0 0zM195.163 126.689c-1.239 10.004 2.612 9.733 0 0zM194.249 113.601c1.248-10.003-2.608-9.738 0 0zM201.257 119.689c10.005 1.244 9.736-2.612 0 0zM188.162 120.6c-10-1.243-9.728 2.613 0 0z"/></g></svg>